<svg width="21" height="21" viewBox="0 0 21 21" fill="none" xmlns="http://www.w3.org/2000/svg">
<path d="M8.295 3.03516C6.81311 2.32764 4.74182 1.98106 1.96875 1.96875C1.70722 1.9652 1.45083 2.04146 1.23375 2.18736C1.05558 2.3078 0.909723 2.47017 0.809023 2.6602C0.708323 2.85023 0.655861 3.06209 0.656252 3.27715V15.0117C0.656252 15.805 1.22063 16.4034 1.96875 16.4034C4.88373 16.4034 7.80774 16.6757 9.5591 18.3311C9.58306 18.3539 9.61318 18.3691 9.6457 18.3748C9.67823 18.3806 9.71174 18.3767 9.74207 18.3636C9.77239 18.3505 9.7982 18.3288 9.81628 18.3011C9.83436 18.2735 9.84391 18.2411 9.84375 18.2081V4.38129C9.84382 4.288 9.82387 4.19579 9.78523 4.11087C9.7466 4.02596 9.69018 3.95034 9.61981 3.8891C9.21864 3.54614 8.77301 3.2589 8.295 3.03516V3.03516Z" fill="black"/>
<path d="M19.7663 2.18613C19.5491 2.04059 19.2927 1.96476 19.0312 1.96875V1.96875C16.2582 1.98106 14.1869 2.326 12.705 3.03516C12.227 3.2585 11.7813 3.54517 11.3798 3.88746C11.3096 3.9488 11.2533 4.02446 11.2147 4.10935C11.1762 4.19425 11.1562 4.28641 11.1563 4.37965V18.2073C11.1562 18.239 11.1656 18.27 11.1831 18.2965C11.2007 18.3229 11.2257 18.3436 11.2549 18.3559C11.2842 18.3682 11.3164 18.3716 11.3476 18.3657C11.3788 18.3597 11.4076 18.3447 11.4302 18.3225C12.4831 17.2766 14.3309 16.4022 19.0329 16.4026C19.381 16.4026 19.7148 16.2643 19.961 16.0181C20.2071 15.772 20.3454 15.4382 20.3454 15.0901V3.27756C20.3459 3.06207 20.2933 2.84979 20.1923 2.65944C20.0913 2.46909 19.945 2.30654 19.7663 2.18613Z" fill="black"/>
</svg>
