<svg width="88" height="112" viewBox="0 0 88 112" fill="none" xmlns="http://www.w3.org/2000/svg">
<path d="M30.0266 32.8308C28.8636 29.038 28.4428 20.8093 28.3777 17.169C29.0895 16.7468 30.4006 16.3427 29.9508 18.1036C29.5011 19.8645 30.5705 27.6408 31.1613 31.3088C30.9682 33.1779 33.0222 41.7171 42.7829 60.9214C52.5437 80.1257 69.7803 90.9791 77.1784 94.0054C79.012 94.6157 82.2773 96.0749 80.6695 97.0285C73.9238 95.7321 61.9004 85.8049 56.7319 81.0034C55.4611 79.7197 52.695 76.9456 51.7976 76.1196C50.6758 75.087 41.2671 63.5185 36.7545 54.4792C32.2419 45.44 31.4803 37.5718 30.0266 32.8308Z" fill="#EDD6A0"/>
<path d="M24.652 20.9069C25.3076 22.0123 27.3647 24.3352 28.3112 25.3585L29.1307 26.7402C29.0533 27.1823 28.2787 27.8229 25.7991 26.8486C22.6996 25.6307 18.3933 20.3744 17.6483 19.1183C16.9033 17.8623 16.4649 15.4056 18.796 15.0417C21.1271 14.6778 23.8325 19.5253 24.652 20.9069Z" fill="#EDD6A0"/>
<path d="M32.5095 17.5412C32.0489 18.741 30.4114 21.3766 29.6503 22.5444L29.0746 24.0441C29.2251 24.4669 30.0964 24.9682 32.377 23.5911C35.2278 21.8698 38.5897 15.9646 39.1131 14.6013C39.6365 13.2379 39.6558 10.7425 37.2968 10.7754C34.9377 10.8084 33.0852 16.0415 32.5095 17.5412Z" fill="#EDD6A0"/>
<path d="M33.0736 27.9691C32.7606 29.2156 31.4521 32.029 30.8369 33.2798L30.4457 34.8379C30.646 35.2395 31.5713 35.6324 33.6697 33.991C36.2928 31.9393 38.92 25.6727 39.2756 24.2562C39.6312 22.8398 39.3503 20.3602 37.0123 20.6766C34.6743 20.9931 33.4647 26.4111 33.0736 27.9691Z" fill="#EDD6A0"/>
<path d="M37.0524 39.3952C36.7395 40.6417 35.4309 43.455 34.8157 44.7059L34.4246 46.264C34.6249 46.6656 35.5501 47.0585 37.6486 45.4171C40.2717 43.3654 42.8989 37.0987 43.2545 35.6823C43.6101 34.2659 43.3292 31.7862 40.9912 32.1027C38.6532 32.4192 37.4436 37.8371 37.0524 39.3952Z" fill="#EDD6A0"/>
<path d="M42.6037 51.0445C42.2908 52.2909 40.9822 55.1043 40.367 56.3552L39.9759 57.9132C40.1762 58.3148 41.1014 58.7077 43.1999 57.0663C45.8229 55.0146 48.4502 48.748 48.8058 47.3316C49.1614 45.9151 48.8805 43.4355 46.5425 43.752C44.2045 44.0684 42.9948 49.4864 42.6037 51.0445Z" fill="#EDD6A0"/>
<path d="M48.7128 61.3441C48.3999 62.5905 47.0913 65.4039 46.4761 66.6548L46.085 68.2128C46.2853 68.6145 47.2105 69.0073 49.309 67.366C51.932 65.3142 54.5593 59.0476 54.9149 57.6312C55.2705 56.2147 54.9896 53.7351 52.6516 54.0516C50.3136 54.368 49.1039 59.786 48.7128 61.3441Z" fill="#EDD6A0"/>
<path d="M38.4655 62.9699C39.5658 63.634 42.4765 64.7088 43.7943 65.1631L45.1696 65.9933C45.3104 66.4194 44.9306 67.3501 42.2849 67.6636C38.9779 68.0555 32.6984 65.459 31.4482 64.7043C30.1979 63.9496 28.6504 61.9919 30.5326 60.5693C32.4148 59.1468 37.0903 62.1397 38.4655 62.9699Z" fill="#EDD6A0"/>
<path d="M46.3379 76.8399C47.6134 76.9966 50.7092 76.7882 52.0977 76.6644L53.6921 76.8602C53.9947 77.1916 54.0283 78.1962 51.7417 79.5634C48.8835 81.2723 42.0912 81.4682 40.6417 81.2902C39.1922 81.1122 36.9798 79.9578 38.1165 77.8903C39.2532 75.8229 44.7434 76.6442 46.3379 76.8399Z" fill="#EDD6A0"/>
<path d="M57.9497 71.5399C57.6208 72.7823 56.2763 75.5786 55.6452 76.8215L55.2341 78.3745C55.4292 78.7786 56.3494 79.1833 58.4687 77.5689C61.1178 75.551 63.8251 69.3185 64.1988 67.9068C64.5725 66.495 64.3234 64.012 61.9815 64.2985C59.6397 64.585 58.3608 69.987 57.9497 71.5399Z" fill="#EDD6A0"/>
<path d="M29.1353 51.2225C30.3792 51.5456 33.4755 51.7462 34.8682 51.8062L36.423 52.21C36.6794 52.5784 36.5805 53.5787 34.134 54.6331C31.0757 55.9512 24.3167 55.2519 22.9032 54.8848C21.4898 54.5177 19.4485 53.0822 20.8472 51.1823C22.246 49.2823 27.5805 50.8187 29.1353 51.2225Z" fill="#EDD6A0"/>
<path d="M24.9353 29.1557C25.9544 29.9387 28.7268 31.3321 29.9855 31.9309L31.2594 32.9096C31.3517 33.3488 30.8702 34.2312 28.2061 34.247C24.876 34.2667 18.9261 30.9846 17.7681 30.0948C16.61 29.2051 15.291 27.0867 17.3204 25.8835C19.3499 24.6802 23.6615 28.177 24.9353 29.1557Z" fill="#EDD6A0"/>
<path d="M30.6464 10.553C30.2823 11.7854 29.9792 14.8734 29.8731 16.2633L29.418 17.8039C29.0413 18.048 28.0448 17.916 27.072 15.4358C25.856 12.3356 26.7789 5.60349 27.1926 4.20294C27.6063 2.8024 29.1087 0.80978 30.9612 2.27072C32.8138 3.73167 31.1015 9.01235 30.6464 10.553Z" fill="#EDD6A0"/>
<path d="M33.6635 40.386L32.9452 38.3228C33.4418 38.4098 34.5942 38.6835 35.2303 39.082C34.2477 42.9567 38.5093 59.6613 42.2837 65.1445C45.3033 69.531 49.8489 74.669 51.7442 76.6897L52.9427 71.2025L52.7754 68.4896L52.8812 65.2218L55.31 66.3936C55.1837 67.6678 54.701 70.4486 53.7811 71.3781C52.6311 72.5399 53.0136 78.1032 53.684 80.0289C54.2204 81.5694 63.6859 91.492 68.3516 96.2607L65.9895 97.0666C64.1326 94.2634 59.8852 88.285 57.7506 86.7974C55.0823 84.9379 43.2894 68.033 39.6586 62.9625C36.754 58.9061 34.4516 46.2213 33.6635 40.386Z" fill="#F2E6C1"/>
<path d="M38.8241 50.7863C37.8884 53.814 34.2659 53.4701 32.5716 52.9197C34.2957 57.8714 33.7127 60.8403 31.823 61.4851C29.461 62.2911 27.2817 58.2641 26.1897 56.0207C24.9487 57.3674 22.4382 57.3007 20.7615 56.9495C19.0847 56.5983 16.8811 54.7341 16.7664 52.6188C16.6747 50.9266 18.9005 49.2233 20.0248 48.5831C18.5702 47.2328 16.2981 44.7898 17.7834 43.0385C19.4366 41.0895 23.7034 43.2243 25.4631 44.1114C25.6693 43.0665 26.7207 40.7585 28.1657 40.2654C32.1786 40.0041 33.2102 42.6991 33.2244 44.0793L34.3933 44.7577C34.1345 45.205 33.8872 46.1615 34.968 46.4082C36.319 46.7167 39.7597 47.7587 38.8241 50.7863Z" fill="#F2E6C1"/>
<path d="M35.6828 50.6512C35.0176 52.8251 32.4264 52.5736 31.2139 52.1761C32.4532 55.7355 32.0401 57.8676 30.6895 58.3285C29.0012 58.9045 27.4375 56.0089 26.6537 54.3958C25.7678 55.3618 23.9723 55.3107 22.7727 55.0563C21.573 54.8019 19.9947 53.4599 19.91 51.9402C19.8422 50.7244 21.4319 49.5035 22.2352 49.045C21.1931 48.0731 19.5651 46.3152 20.6252 45.059C21.805 43.6609 24.8592 45.1998 26.1189 45.8393C26.265 45.0889 27.014 43.4321 28.0468 43.0797C30.9165 42.897 31.6577 44.8344 31.6696 45.8259L32.5064 46.3147C32.3219 46.6358 32.1462 47.3226 32.9195 47.5012C33.8861 47.7245 36.3481 48.4773 35.6828 50.6512Z" fill="#F2E6C1"/>
<path d="M29.1061 49.1738C29.3971 50.0094 28.9487 50.9203 28.1046 51.2083C27.2605 51.4963 26.3403 51.0524 26.0494 50.2168C25.7585 49.3812 26.2069 48.4703 27.051 48.1823C27.8951 47.8942 28.8152 48.3382 29.1061 49.1738Z" fill="#F2E6C1"/>
<path d="M47.1935 66.4337C47.1784 69.3101 43.9355 69.9478 42.316 69.9071C45.1229 73.7699 45.3991 76.504 43.925 77.5537C42.0824 78.8659 39.1234 75.9255 37.5812 74.2558C36.8567 75.7487 34.6547 76.3399 33.103 76.4679C31.5512 76.596 29.1419 75.5438 28.4839 73.7328C27.9574 72.2841 29.4447 70.2263 30.2541 69.3785C28.632 68.5798 26.0102 67.0416 26.8405 65.1336C27.7647 63.0101 32.0408 63.7642 33.8061 64.081C33.7097 63.1185 34.0155 60.8382 35.1428 60.0355C38.5656 58.7703 40.1744 60.8486 40.551 62.0458L41.7471 62.3338C41.64 62.79 41.6772 63.6862 42.6828 63.6214C43.9397 63.5404 47.2086 63.5572 47.1935 66.4337Z" fill="#F2E6C1"/>
<path d="M44.4245 67.1285C44.4193 69.1921 42.0983 69.6434 40.9384 69.6111C42.9561 72.3878 43.1592 74.3499 42.1056 75.1002C40.7886 76.0381 38.6638 73.9229 37.5561 72.722C37.0402 73.7916 35.4644 74.2115 34.3534 74.3004C33.2424 74.3893 31.5149 73.6298 31.0401 72.3293C30.6603 71.2889 31.7213 69.8154 32.2993 69.2088C31.1361 68.6326 29.2556 67.524 29.8464 66.1568C30.5041 64.6351 33.5678 65.1843 34.8327 65.415C34.7618 64.7242 34.9763 63.0888 35.782 62.5151C38.2308 61.614 39.387 63.1081 39.659 63.9677L40.5162 64.1766C40.4404 64.5037 40.4687 65.1468 41.1887 65.1022C42.0887 65.0465 44.4297 65.0648 44.4245 67.1285Z" fill="#F2E6C1"/>
<path d="M38.312 67.5438C38.7857 68.1957 38.6359 69.1042 37.9774 69.5732C37.3189 70.0421 36.4011 69.8938 35.9274 69.2419C35.4538 68.5901 35.6036 67.6815 36.262 67.2126C36.9205 66.7437 37.8383 66.892 38.312 67.5438Z" fill="#F2E6C1"/>
<path d="M48.3282 84.2551C47.8922 87.3827 44.2707 87.613 42.5144 87.3372C45.0052 91.9415 44.9069 94.9559 43.1499 95.8874C40.9536 97.0518 38.1628 93.4295 36.7283 91.3922C35.7223 92.913 33.24 93.2415 31.533 93.1591C29.8259 93.0766 27.3578 91.5873 26.9059 89.5228C26.5445 87.8712 28.4628 85.8448 29.4672 85.038C27.8187 83.937 25.1904 81.8886 26.3721 79.9313C27.6873 77.7528 32.2301 79.1845 34.1047 79.7816C34.1402 78.7205 34.8056 76.2831 36.1492 75.5708C40.0581 74.6834 41.5055 77.1747 41.7406 78.5312L43.0001 79.0155C42.817 79.4966 42.7267 80.4771 43.8303 80.5503C45.2098 80.6418 48.7641 81.1274 48.3282 84.2551Z" fill="#F2E6C1"/>
<path d="M45.214 84.6153C44.9073 86.86 42.316 87.0192 41.0586 86.8182C42.8491 90.1279 42.7839 92.2919 41.5281 92.9577C39.9583 93.7899 37.9548 91.1847 36.9247 89.7197C36.2073 90.8098 34.4315 91.0415 33.2097 90.9794C31.9878 90.9173 30.219 89.844 29.892 88.3611C29.6305 87.1747 30.9999 85.7231 31.7173 85.1456C30.5357 84.3525 28.6512 82.8774 29.4935 81.4742C30.431 79.9125 33.6846 80.948 35.0272 81.3798C35.0508 80.618 35.5228 78.8693 36.4831 78.3602C39.279 77.7297 40.3191 79.5207 40.4897 80.4949L41.3919 80.8448C41.2617 81.1898 41.1988 81.8936 41.9887 81.948C42.9761 82.016 45.5206 82.3706 45.214 84.6153Z" fill="#F2E6C1"/>
<path d="M38.5024 84.1935C38.9228 84.9705 38.6272 85.9376 37.8424 86.3537C37.0575 86.7698 36.0805 86.4773 35.6602 85.7003C35.2399 84.9233 35.5354 83.9561 36.3203 83.54C37.1051 83.1239 38.0821 83.4165 38.5024 84.1935Z" fill="#F2E6C1"/>
<path d="M24.1741 30.5435C24.5227 31.9019 30.2593 36.2641 33.0841 38.2754C33.5057 38.5932 34.5155 39.172 35.1824 38.9444C36.0161 38.66 45.003 44.8268 43.7147 41.5731C42.684 38.9701 40.4686 37.7563 39.4897 37.4747C40.6172 37.1413 43.1405 36.3522 44.2137 35.8628C45.5553 35.2512 45.7279 33.9612 43.9891 32.0923C42.598 30.5972 39.7812 31.1685 38.5467 31.641C39.0802 30.7921 40.1175 28.9198 39.9988 28.2217C39.8504 27.349 38.1932 24.375 35.7064 26.6085C33.7169 28.3953 33.7142 31.751 33.9616 33.2055C33.2063 32.0782 31.3031 29.5883 29.7318 28.6471C28.1605 27.7059 26.9372 28.0618 26.5219 28.3574C25.5941 28.5201 23.8255 29.1851 24.1741 30.5435Z" fill="#F2E6C1"/>
<path d="M26.7222 32.4982C26.9956 33.5637 31.4942 36.9857 33.7093 38.5635C34.0399 38.8129 34.8317 39.2669 35.3546 39.0885C36.0083 38.8654 43.0555 43.7032 42.045 41.151C41.2367 39.1093 39.4994 38.157 38.7318 37.9361C39.6159 37.6747 41.5943 37.056 42.4358 36.6723C43.4876 36.1927 43.6229 35.1809 42.2593 33.7149C41.1684 32.5421 38.9598 32.9899 37.9919 33.3604C38.4101 32.6946 39.2233 31.2262 39.1301 30.6786C39.0137 29.9941 37.714 27.6614 35.7643 29.413C34.2045 30.8143 34.2027 33.4462 34.3968 34.5871C33.8045 33.7028 32.312 31.7497 31.0798 31.0114C29.8477 30.273 28.8885 30.552 28.5629 30.7838C27.8354 30.9113 26.4487 31.4328 26.7222 32.4982Z" fill="#F2E6C1"/>
<path d="M45.6091 58.6907C45.6675 60.0911 50.3735 65.5296 52.7192 68.0738C53.0656 68.4707 53.9334 69.243 54.6333 69.1563C55.5083 69.0479 63.0193 76.9151 62.4357 73.4684C61.9687 70.7111 60.0533 69.0716 59.154 68.5964C60.3267 68.5001 62.9601 68.2424 64.1121 67.9824C65.5522 67.6574 65.9896 66.4303 64.6769 64.2469C63.6267 62.5002 60.7514 62.4848 59.4451 62.6955C60.1438 61.9736 61.5484 60.353 61.5775 59.6456C61.6139 58.7613 60.611 55.5132 57.7128 57.1918C55.3942 58.5346 54.6934 61.8177 54.6327 63.2915C54.1283 62.0344 52.7839 59.2097 51.4422 57.9683C50.1004 56.7269 48.8293 56.8257 48.3614 57.0303C47.4196 57.0003 45.5506 57.2904 45.6091 58.6907Z" fill="#F2E6C1"/>
<path d="M47.6958 61.1232C47.7417 62.2216 51.4317 66.4875 53.271 68.4832C53.5426 68.7946 54.223 69.4003 54.7719 69.3324C55.4579 69.2474 61.3474 75.4184 60.8896 72.7149C60.5234 70.5522 59.0215 69.2661 58.3164 68.8934C59.2359 68.8179 61.3007 68.6158 62.2039 68.4119C63.333 68.1571 63.6759 67.1946 62.6466 65.482C61.8231 64.1119 59.5687 64.0997 58.5444 64.2649C59.0922 63.6987 60.1935 62.4276 60.2163 61.8727C60.2448 61.1792 59.4583 58.6314 57.1859 59.9479C55.3681 61.0011 54.8187 63.5762 54.7712 64.7322C54.3756 63.7461 53.3214 61.5305 52.2694 60.5568C51.2173 59.583 50.2206 59.6604 49.8538 59.8209C49.1153 59.7973 47.6499 60.0248 47.6958 61.1232Z" fill="#F2E6C1"/>
<path d="M41.0795 72.8066C41.0097 69.2633 39.1261 61.2321 32.1498 57.4531C33.6289 63.2826 33.4138 68.6639 41.0795 72.8066Z" fill="#DBBC7B"/>
<path d="M50.2317 77.0404C50.1619 73.4972 48.2783 65.466 41.3019 61.6869C42.781 67.5164 42.566 72.8977 50.2317 77.0404Z" fill="#DBBC7B"/>
<path d="M59.5587 84.0395C59.4889 80.4963 57.6053 72.4651 50.6289 68.686C52.1081 74.5155 51.893 79.8968 59.5587 84.0395Z" fill="#DBBC7B"/>
<path d="M65.653 92.4421C66.6533 89.0423 67.2752 80.8166 61.7604 75.1125C61.4157 81.1168 59.5904 86.1836 65.653 92.4421Z" fill="#DBBC7B"/>
<path d="M70.2159 100.004C71.9942 96.9385 74.5498 89.0952 70.5458 82.2456C68.7865 87.9967 65.8112 92.4858 70.2159 100.004Z" fill="#DBBC7B"/>
<path d="M66.1029 98.8577C62.5861 99.2951 54.3681 98.5788 49.6306 92.2143C55.6117 92.845 60.907 91.8629 66.1029 98.8577Z" fill="#DBBC7B"/>
<path d="M38.0627 75.1212C34.9316 76.7811 26.9964 79.0353 20.3047 74.7725C26.1188 73.2341 30.7183 70.4325 38.0627 75.1212Z" fill="#DBBC7B"/>
<path d="M48.6795 81.7659C45.2163 83.3092 36.4644 85.0603 29.1619 79.7172C35.5731 78.5595 40.6649 75.8904 48.6795 81.7659Z" fill="#DBBC7B"/>
<path d="M60.7454 90.2738C57.062 91.1728 48.138 91.3301 41.9091 84.767C48.4239 84.7748 53.911 83.0595 60.7454 90.2738Z" fill="#DBBC7B"/>
<path d="M32.1215 68.3822C31.6174 64.8743 28.7625 57.1349 21.3752 54.2405C23.5585 59.8444 24.0054 65.2115 32.1215 68.3822Z" fill="#DBBC7B"/>
<path d="M28.3703 70.1016C26.0835 66.5026 19.1262 59.4238 9.59164 59.9002C14.7567 64.9684 17.8998 70.6351 28.3703 70.1016Z" fill="#DBBC7B"/>
</svg>
